<?xml version="1.0" encoding="utf-8"?>
<!-- Designed by Vexels.com - 2017 All Rights Reserved - https://vexels.com/terms-and-conditions/  -->

<svg version="1.1" id="Layer_1" xmlns="http://www.w3.org/2000/svg" xmlns:xlink="http://www.w3.org/1999/xlink" x="0px" y="0px"
	 width="1200px" height="1200px" viewBox="0 0 1200 1200" enable-background="new 0 0 1200 1200" xml:space="preserve">
<g>
	<path d="M61.861,419.124v-14.719h82.302v14.582h-15.145c0,0-6.035,0.084-6.035,6.032v155.448h50.826c0,0,8.579,4.859,10.863-39.73
		h21.149v54.593H62.048v-13.144h15.722c0,0,6.716-2.005,6.716-6.72V424.402c0,0-0.716-4.859-8.147-4.859L61.861,419.124z"/>
	<path d="M217.832,480.424v-11.431l39.159-14.863h15.151v123.197c0,0,0.286,6.572,8.859,6.572h10.576v11.719h-74.03v-12.291h11.145
		c0,0,7.432-0.859,8.005-5.433v-97.47H217.832z"/>
	<path d="M374.756,595.618h-70.03v-12.291h10.863c0,0,7.427-0.855,7.713-6v-97.758h-19.436v-12.003l40.018-13.724h14.291v17.435
		c0,0,31.158-16.862,49.453-16.862c0,0,36.586-2.86,36.872,37.158v84.608c0,0,0.86,6.859,9.146,6.859h11.149v12.577h-69.745v-13.146
		h9.718c0,0,5.145-0.286,6.286-5.431v-73.748c0,0-1.713-25.441-26.582-24.582c0,0-17.15,2.285-26.012,5.431v93.185
		c0,0,1.145,4.859,7.15,5.426h9.432L374.756,595.618z"/>
	<path d="M492.522,479.283H473.37v-11.437l38.875-13.716h15.719v93.185c0,0-1.141,29.438,26.586,27.154
		c0,0,22.009-2.286,24.867-4.577v-90.322h-18.862v-11.436l38.299-14.291h15.723v122.625c0,0-0.286,5.719,7.146,6.286h11.146v13.436
		h-53.45v-15.435c0,0-27.154,18.007-49.163,17.722c0,0-36.591,2.001-37.732-39.731V479.283z"/>
	<path d="M642.015,469.279v-13.15h68.318v12.864c0,0-15.149-0.574-10.864,6.858l22.295,32.299l22.009-32.299
		c0,0,5.433-6.572-12.005-6.004v-13.144h52.309v12.576c0,0-12.862,0.572-18.291,6.286l-33.73,45.163l42.017,60.312
		c0,0,4.573,2.858,15.149,3.144v11.719h-67.17v-10.578c0,0,15.149,0,10.289-8.285l-23.728-35.445l-24.867,36.017
		c0,0-6.286,6,12.576,5.715v12.002h-54.879v-11.717c0,0,12.862,0.86,18.295-6.286l37.158-48.31l-36.586-53.452
		C660.31,475.565,658.593,469.565,642.015,469.279z"/>
	<polygon points="786.694,448.979 783.701,448.979 783.701,441.593 798.6,441.593 798.6,448.979 795.731,448.979 795.731,444.584 
		792.679,444.584 792.679,455.029 795.607,455.029 795.607,457.897 786.812,457.897 786.812,455.087 789.621,455.087 
		789.621,444.584 786.634,444.584 	"/>
	<polygon points="800.126,457.955 800.126,455.029 801.592,455.029 801.592,444.584 800.126,444.584 800.126,441.409 
		804.521,441.409 804.521,444.524 806.17,444.524 806.17,447.7 807.573,447.7 807.573,448.979 809.103,448.979 809.103,447.517 
		810.687,447.517 810.687,444.709 812.095,444.709 812.095,441.472 816.55,441.472 816.55,444.524 815.082,444.524 815.082,455.087 
		816.55,455.087 816.55,458.016 809.161,458.016 809.161,455.029 812.154,455.029 812.154,450.509 810.629,450.509 810.629,451.912 
		809.161,451.912 809.161,453.561 807.573,453.561 807.573,452.035 806.17,452.035 806.17,450.445 804.521,450.445 804.521,454.846 
		807.573,454.846 807.573,457.986 	"/>
	<linearGradient id="SVGID_1_" gradientUnits="userSpaceOnUse" x1="50" y1="712.3791" x2="785.0464" y2="712.3791">
		<stop  offset="0" style="stop-color:#FADC00"/>
		<stop  offset="0.0089" style="stop-color:#FADA00"/>
		<stop  offset="0.153" style="stop-color:#F5B715"/>
		<stop  offset="0.2988" style="stop-color:#F09424"/>
		<stop  offset="0.4433" style="stop-color:#EC752A"/>
		<stop  offset="0.5865" style="stop-color:#E95B2B"/>
		<stop  offset="0.7279" style="stop-color:#E8452B"/>
		<stop  offset="0.8667" style="stop-color:#E7382A"/>
		<stop  offset="1" style="stop-color:#E6332A"/>
		<stop  offset="1" style="stop-color:#FFFFFF"/>
	</linearGradient>
	<path fill="url(#SVGID_1_)" d="M50.005,713.581c0,0-0.43-26.582,41.667-36.334c0,0,144.056-42.447,646.967-55.311
		c0,0,90.034,3.862,19.292,28.301c0,0-240.524,37.296-293.259,42.443c0,0-271.392,34.727-361.426,91.321
		c0,0-12.237,9.28-19.913,17.283c0,0-7.389,4.908-13.522-2.809C69.811,798.475,49.655,778.65,50.005,713.581z"/>
	<linearGradient id="SVGID_2_" gradientUnits="userSpaceOnUse" x1="951.9838" y1="567.8212" x2="943.8058" y2="759.1747">
		<stop  offset="0.644" style="stop-color:#FFFFFF"/>
		<stop  offset="0.6827" style="stop-color:#CCCCCC"/>
		<stop  offset="0.7287" style="stop-color:#979797"/>
		<stop  offset="0.7754" style="stop-color:#686868"/>
		<stop  offset="0.8217" style="stop-color:#434343"/>
		<stop  offset="0.8676" style="stop-color:#262626"/>
		<stop  offset="0.9129" style="stop-color:#111111"/>
		<stop  offset="0.9573" style="stop-color:#040404"/>
		<stop  offset="1" style="stop-color:#000000"/>
	</linearGradient>
	<path fill="url(#SVGID_2_)" d="M1021.545,633.161c0,29.657-32.393,53.701-72.351,53.701c-39.965,0-72.356-24.044-72.356-53.701
		c0-29.658,32.391-53.699,72.356-53.699C989.152,579.461,1021.545,603.503,1021.545,633.161z"/>
	<path d="M1006.759,809.126c0,0-36.393-2.596-43.319-4.331c0,0-8.663,0-16.46,1.735c0,0-32.056,5.198-48.52,2.596l-87.5-116.956
		c0,0-13.857-27.721,22.527-92.701c0,0,35.525-54.581,40.719-59.775c5.198-5.198,17.328-31.188,16.462-62.382
		c0,0-24.259-110.891,64.109-114.353c0,0,64.976-12.134,76.239,61.507c0,0,0.864,59.779,3.467,71.043
		c0,0-7.797,10.395,33.786,59.779c0,0,79.703,89.235,32.922,149.01L1006.759,809.126z"/>
	<linearGradient id="SVGID_3_" gradientUnits="userSpaceOnUse" x1="970.5369" y1="365.6126" x2="971.6113" y2="679.8269">
		<stop  offset="0" style="stop-color:#000000"/>
		<stop  offset="0.1086" style="stop-color:#333333"/>
		<stop  offset="0.2381" style="stop-color:#686868"/>
		<stop  offset="0.3692" style="stop-color:#979797"/>
		<stop  offset="0.4993" style="stop-color:#BCBCBC"/>
		<stop  offset="0.6281" style="stop-color:#D9D9D9"/>
		<stop  offset="0.7553" style="stop-color:#EEEEEE"/>
		<stop  offset="0.8801" style="stop-color:#FBFBFB"/>
		<stop  offset="1" style="stop-color:#FFFFFF"/>
		<stop  offset="1" style="stop-color:#FFFFFF"/>
	</linearGradient>
	<path fill="url(#SVGID_3_)" d="M905.131,511.726c0,0-3.002,39.444-27.014,86.609c0,0-18.865,36.017-21.867,74.601
		c0,0-26.58-30.012,10.722-89.609c0,0,2.646-3.432,0.819-4.223c0,0-1.234-1.283-3.604,2.865c0,0-38.946,57.097-18.938,91.97
		c0,0,4.573,7.717,14.291,16.002c0,0,22.867,15.151,29.441,22.016c6.576,6.858,26.872,26.868,14.863,38.013
		c0,0-4.573,4.857-12.291,4.004c0,0,11.717,35.731,66.598,33.726c0,0,33.445-3.714,56.599-23.722l88.895-68.029l-2.287-4.859
		c0,0,11.721-18.296-28.013-33.728c0,0,14.289-38.877-30.872-85.465c0,0-5.429-3.72-3.142,1.713c0,0,41.164,36.586,24.009,80.608
		l-8.859-0.573c0,0-7.719-35.445-26.015-68.318c0,0-29.01-61.165-29.87-85.179C997.744,476.137,905.131,511.726,905.131,511.726z"/>
	<linearGradient id="SVGID_4_" gradientUnits="userSpaceOnUse" x1="954.2464" y1="495.2487" x2="948.2441" y2="583.5696">
		<stop  offset="0.7701" style="stop-color:#FFFFFF"/>
		<stop  offset="0.7951" style="stop-color:#CCCCCC"/>
		<stop  offset="0.8248" style="stop-color:#979797"/>
		<stop  offset="0.855" style="stop-color:#686868"/>
		<stop  offset="0.8849" style="stop-color:#434343"/>
		<stop  offset="0.9145" style="stop-color:#262626"/>
		<stop  offset="0.9437" style="stop-color:#111111"/>
		<stop  offset="0.9724" style="stop-color:#040404"/>
		<stop  offset="1" style="stop-color:#000000"/>
	</linearGradient>
	<path opacity="0.5" fill="url(#SVGID_4_)" d="M992.371,537.266c0,14.512-18.349,26.283-40.981,26.283
		c-22.63,0-40.979-11.771-40.979-26.283c0-14.52,18.349-26.286,40.979-26.286C974.022,510.98,992.371,522.746,992.371,537.266z"/>
	<path fill="none" stroke="#F7A81C" stroke-width="0.6774" stroke-miterlimit="10" d="M898.243,497.856
		c0,0,30.928,39.642,73.66,9.559c0,0,5.343-6.469,21.648-10.685"/>
	<linearGradient id="SVGID_5_" gradientUnits="userSpaceOnUse" x1="951.5373" y1="356.3292" x2="960.5404" y2="474.6603">
		<stop  offset="0.1239" style="stop-color:#FFFFFF"/>
		<stop  offset="0.1971" style="stop-color:#D7D7D7"/>
		<stop  offset="0.4145" style="stop-color:#656565"/>
		<stop  offset="0.5644" style="stop-color:#1C1C1C"/>
		<stop  offset="0.6335" style="stop-color:#000000"/>
		<stop  offset="0.6335" style="stop-color:#20201F"/>
		<stop  offset="0.7277" style="stop-color:#050505"/>
	</linearGradient>
	<path opacity="0.5" fill="url(#SVGID_5_)" d="M1008.71,401.51c1.911,21.67-20.433,41.347-49.913,43.949
		c-29.475,2.603-54.924-12.85-56.841-34.517c-1.911-21.67,20.433-41.342,49.913-43.945
		C981.348,364.39,1006.8,379.847,1008.71,401.51z"/>
	<path fill="#CAC7C6" d="M934.103,454.45c0,14.562-7.591,26.369-16.957,26.369c-9.363,0-16.958-11.807-16.958-26.369
		c0-14.566,7.595-26.369,16.958-26.369C926.512,428.081,934.103,439.884,934.103,454.45z"/>
	<path fill="#CAC7C6" d="M998.631,455.239c0,16.918-10.582,30.638-23.627,30.638c-13.051,0-23.629-13.72-23.629-30.638
		c0-16.917,10.578-30.629,23.629-30.629C988.049,424.61,998.631,438.322,998.631,455.239z"/>
	<path d="M923.19,460.767c0,7.436-3.205,13.466-7.161,13.466c-3.95,0-7.154-6.031-7.154-13.466c0-7.432,3.205-13.462,7.154-13.462
		C919.985,447.305,923.19,453.335,923.19,460.767z"/>
	<linearGradient id="SVGID_6_" gradientUnits="userSpaceOnUse" x1="914.3999" y1="440.5194" x2="919.008" y2="477.147">
		<stop  offset="0" style="stop-color:#FFFFFF"/>
		<stop  offset="0.0427" style="stop-color:#DCDCDC"/>
		<stop  offset="0.1123" style="stop-color:#A9A9A9"/>
		<stop  offset="0.1853" style="stop-color:#7C7C7C"/>
		<stop  offset="0.2601" style="stop-color:#565656"/>
		<stop  offset="0.3373" style="stop-color:#363636"/>
		<stop  offset="0.4175" style="stop-color:#1E1E1E"/>
		<stop  offset="0.5022" style="stop-color:#0D0D0D"/>
		<stop  offset="0.5942" style="stop-color:#030303"/>
		<stop  offset="0.7074" style="stop-color:#000000"/>
	</linearGradient>
	<path opacity="0.5" fill="url(#SVGID_6_)" d="M921.006,455.433c0,3.417-2.117,6.183-4.73,6.183c-2.616,0-4.73-2.766-4.73-6.183
		c0-3.417,2.114-6.187,4.73-6.187C918.889,449.245,921.006,452.015,921.006,455.433z"/>
	<path d="M985.062,461.373c0,10.719-5.214,19.406-11.648,19.406c-6.439,0-11.653-8.687-11.653-19.406
		c0-10.716,5.214-19.406,11.653-19.406C979.848,441.966,985.062,450.657,985.062,461.373z"/>
	<linearGradient id="SVGID_7_" gradientUnits="userSpaceOnUse" x1="971.0999" y1="432.1611" x2="977.7507" y2="485.0248">
		<stop  offset="0" style="stop-color:#FFFFFF"/>
		<stop  offset="0.0427" style="stop-color:#DCDCDC"/>
		<stop  offset="0.1123" style="stop-color:#A9A9A9"/>
		<stop  offset="0.1853" style="stop-color:#7C7C7C"/>
		<stop  offset="0.2601" style="stop-color:#565656"/>
		<stop  offset="0.3373" style="stop-color:#363636"/>
		<stop  offset="0.4175" style="stop-color:#1E1E1E"/>
		<stop  offset="0.5022" style="stop-color:#0D0D0D"/>
		<stop  offset="0.5942" style="stop-color:#030303"/>
		<stop  offset="0.7074" style="stop-color:#000000"/>
	</linearGradient>
	<path opacity="0.5" fill="url(#SVGID_7_)" d="M981.508,453.679c0,4.93-3.447,8.919-7.702,8.919c-4.253,0-7.698-3.988-7.698-8.919
		c0-4.921,3.445-8.912,7.698-8.912C978.06,444.766,981.508,448.758,981.508,453.679z"/>
	<path fill="#F1883B" d="M906.786,510.778c0,0-16.161-8.083-12.488-19.105c0,0,0.243-5.876,8.085-11.511
		c7.836-5.635,6.858-4.898,7.836-5.635c0.978-0.735,18.37-13.223,23.756-14.696c5.388-1.47,17.145-1.713,24.74,2.938
		c7.588,4.657,25.712,11.758,28.897,12.495c3.185,0.735,12.001,5.633,13.223,10.774c1.225,5.147-1.223,12.493-5.141,16.899
		c-3.915,4.41-10.778,9.06-18.858,12.492c-8.083,3.428-11.021,5.878-16.165,8.816c-5.141,2.942-19.348,8.818-31.594,2.695
		c-12.246-6.123-10.528-8.573-14.448-10.774C910.708,513.957,906.786,510.778,906.786,510.778z"/>
	<path fill="#FBB91D" d="M909.377,510.348c0,0-15.476-7.732-11.953-18.287c0,0,0.232-5.624,7.732-11.016
		c7.5-5.392,6.568-4.689,7.5-5.392c0.939-0.701,17.584-12.656,22.74-14.064c5.156-1.408,16.415-1.64,23.679,2.816
		c7.264,4.455,24.616,11.248,27.657,11.951c3.051,0.705,11.491,5.392,12.66,10.314c1.172,4.923-1.173,11.959-4.921,16.178
		c-3.748,4.221-10.316,8.676-18.05,11.954c-7.737,3.283-10.546,5.624-15.476,8.439c-4.917,2.816-18.516,8.44-30.233,2.579
		c-11.723-5.863-10.08-8.203-13.832-10.316C913.125,513.396,909.377,510.348,909.377,510.348z"/>
	<linearGradient id="SVGID_8_" gradientUnits="userSpaceOnUse" x1="945.3943" y1="459.0752" x2="940.9767" y2="530.2413">
		<stop  offset="0" style="stop-color:#FFFFFF"/>
		<stop  offset="0.0954" style="stop-color:#CCCCCC"/>
		<stop  offset="0.2091" style="stop-color:#979797"/>
		<stop  offset="0.3243" style="stop-color:#686868"/>
		<stop  offset="0.4385" style="stop-color:#434343"/>
		<stop  offset="0.5516" style="stop-color:#262626"/>
		<stop  offset="0.6633" style="stop-color:#111111"/>
		<stop  offset="0.773" style="stop-color:#040404"/>
		<stop  offset="0.8783" style="stop-color:#000000"/>
	</linearGradient>
	<path opacity="0.1" fill="url(#SVGID_8_)" d="M914.933,479.199c0,0,11.525-17.709,27.555-17.994c0,0,26.423,5.624,30.921,17.154
		c0,0-5.62,15.742-30.646,15.742C942.763,494.101,919.152,495.509,914.933,479.199z"/>
	<linearGradient id="SVGID_9_" gradientUnits="userSpaceOnUse" x1="846.4178" y1="758.6445" x2="849.2761" y2="516.8243">
		<stop  offset="0.0838" style="stop-color:#000000"/>
		<stop  offset="0.1116" style="stop-color:#333333"/>
		<stop  offset="0.1448" style="stop-color:#686868"/>
		<stop  offset="0.1785" style="stop-color:#979797"/>
		<stop  offset="0.2119" style="stop-color:#BCBCBC"/>
		<stop  offset="0.2449" style="stop-color:#D9D9D9"/>
		<stop  offset="0.2775" style="stop-color:#EEEEEE"/>
		<stop  offset="0.3096" style="stop-color:#FBFBFB"/>
		<stop  offset="0.3403" style="stop-color:#FFFFFF"/>
		<stop  offset="0.5602" style="stop-color:#FFFFFF"/>
	</linearGradient>
	<path opacity="0.3" fill="url(#SVGID_9_)" d="M828.094,689.088c0,0-20.578-34.871,8.577-85.753c0,0,10.864-21.723,32.013-46.876
		c0,0,12.009-12.005,4.003,1.713c0,0-24.011,38.877-27.439,47.45c-3.432,8.577-22.299,35.445,2.854,87.466
		C873.257,745.115,828.094,689.088,828.094,689.088z"/>
	<g>
		<path fill="#BE7247" d="M911.097,788.331c0.38-12.523-12.131-26.416-25.4-42.268c-13.268-15.852-22.256-38.991-22.256-38.991
			c-12.336-27.549-30.334-27.291-34.779-26.762c-12.458-0.08-22.469,11.994-22.469,11.994c-6.439,9.299-12.185,14.212-15.914,16.709
			c-0.193,0.021-0.38,0.045-0.574,0.069c-38.03,4.268-25.701,43.736-25.701,43.736c6.295,13.309-4.025,28.196-4.025,28.196
			c-7.623,24.715,13.432,25.909,17.324,26.275c3.881,0.371,21.108,2.306,33.547,3.477c12.435,1.171,33.535,12.104,33.535,12.104
			c20.863,8.399,40.418,3.806,40.418,3.806C914.43,813.293,911.097,788.331,911.097,788.331z"/>
		<path fill="#F08128" d="M908.608,786.934c0.419-12.009-11.633-25.282-24.418-40.422c-12.781-15.141-21.381-37.287-21.381-37.287
			c-8.051-17.945-18.695-23.524-26.034-25.091c-7.758-2.493-19.95,0.204-26.788,8.036c-7.372,8.44-9.239,10.127-14.928,15.811
			c-1.808,1.807-3.159,2.903-4.172,3.561c-36.225,4.548-24.573,41.983-24.573,41.983c6.035,12.736-4.023,27.051-4.023,27.051
			c-7.492,23.737,12.897,24.788,16.66,25.125c3.763,0.335,20.434,2.113,32.473,3.185c12.043,1.066,32.428,11.455,32.428,11.455
			c20.161,7.965,39.124,3.473,39.124,3.473C911.724,810.854,908.608,786.934,908.608,786.934z"/>
		<path fill="#FFD400" d="M906.055,785.765c0.361-11.67-11.302-24.611-23.677-39.371c-12.37-14.755-20.745-36.309-20.745-36.309
			c-11.141-24.889-27.278-25.4-32.023-24.962c-1.386,0.084-2.809,0.282-4.242,0.587c-5.801,1.244-11.672,4.307-15.742,9.192
			c-7.52,9.03-9.594,11.05-15.183,16.9c-0.529,0.071-1.066,0.14-1.61,0.198c-35.49,4.001-24.003,40.768-24.003,40.768
			c5.86,12.396-3.778,26.271-3.778,26.271c-7.131,23.036,12.518,24.137,16.142,24.474c3.63,0.34,19.703,2.132,31.308,3.213
			c11.603,1.083,31.283,11.259,31.283,11.259c19.46,7.812,37.71,3.52,37.71,3.52C909.146,809.018,906.055,785.765,906.055,785.765z"
			/>
		
			<linearGradient id="SVGID_10_" gradientUnits="userSpaceOnUse" x1="2835.8279" y1="547.9855" x2="2873.6545" y2="319.6731" gradientTransform="matrix(-0.9322 0.362 0.362 0.9322 3336.5806 -699.2446)">
			<stop  offset="0.4551" style="stop-color:#E1DA1D"/>
			<stop  offset="0.4832" style="stop-color:#E4DE33"/>
			<stop  offset="0.5583" style="stop-color:#EBE668"/>
			<stop  offset="0.6343" style="stop-color:#F1EE97"/>
			<stop  offset="0.7097" style="stop-color:#F6F4BC"/>
			<stop  offset="0.7844" style="stop-color:#FAF9D9"/>
			<stop  offset="0.8581" style="stop-color:#FDFCEE"/>
			<stop  offset="0.9305" style="stop-color:#FEFEFB"/>
			<stop  offset="1" style="stop-color:#FFFFFF"/>
			<stop  offset="1" style="stop-color:#FFFFFF"/>
		</linearGradient>
		<path opacity="0.6" fill="url(#SVGID_10_)" d="M868.631,742.444c0,0-17.816-59.794-40.605-46.981
			c-22.789,12.819-28.766,23.436-28.766,23.436s-25.365,14.539,21.981,49.163L868.631,742.444z"/>
	</g>
	<linearGradient id="SVGID_11_" gradientUnits="userSpaceOnUse" x1="1069.7352" y1="526.371" x2="1100.606" y2="775.0512">
		<stop  offset="0" style="stop-color:#000000"/>
		<stop  offset="0.037" style="stop-color:#333333"/>
		<stop  offset="0.081" style="stop-color:#686868"/>
		<stop  offset="0.1257" style="stop-color:#979797"/>
		<stop  offset="0.1699" style="stop-color:#BCBCBC"/>
		<stop  offset="0.2138" style="stop-color:#D9D9D9"/>
		<stop  offset="0.257" style="stop-color:#EEEEEE"/>
		<stop  offset="0.2995" style="stop-color:#FBFBFB"/>
		<stop  offset="0.3403" style="stop-color:#FFFFFF"/>
		<stop  offset="0.5602" style="stop-color:#FFFFFF"/>
	</linearGradient>
	<path opacity="0.2" fill="url(#SVGID_11_)" d="M1084.814,683.297c0,0,27.762-49.273-29.326-130.205c0,0-14.859-28.151,0.78-9.383
		c0,0,69.992,77.023,46.532,147.015L1084.814,683.297z"/>
	<path fill="#BE7247" d="M1044.209,680.808c0,0-21.987,3.147-23.737,37.756c0,0,0,24.824-6.63,44.402
		c-6.632,19.585-13.264,37.065-8.377,48.6c0,0,5.936,24.474,38.394,26.221c0,0,19.896-2.794,36.3-18.181
		c0,0,15.708-17.827,26.877-23.421c11.171-5.596,26.526-13.634,30.018-15.388c3.486-1.747,22.686-10.483,6.626-30.764
		c0,0-15.005-10.142-13.958-24.822c0,0-2.79-41.256-39.791-31.469C1052.935,703.532,1044.209,680.808,1044.209,680.808z"/>
	<path fill="#F08128" d="M1044.867,684.199c0,0-21.332,3.013-23.026,36.142c0,0,0,23.762-6.434,42.502
		c-6.434,18.744-12.869,35.473-8.128,46.519c0,0,5.757,23.427,37.246,25.095c0,0,19.303-2.676,35.22-17.401
		c0,0,15.237-17.066,26.073-22.417c10.833-5.358,25.736-13.051,29.118-14.726c3.383-1.674,22.009-10.038,6.435-29.451
		c0,0-14.562-9.707-13.544-23.76c0,0-2.712-39.49-38.602-30.117C1053.33,705.952,1044.867,684.199,1044.867,684.199z"/>
	<path fill="#FFD400" d="M1045.396,685.549c0,0-20.524,2.927-22.153,35.168c0,0,0,23.124-6.187,41.362
		c-6.191,18.239-12.379,34.521-7.816,45.27c0,0,5.536,22.793,35.83,24.423c0,0,18.572-2.607,33.88-16.937
		c0,0,14.661-16.606,25.084-21.815c10.425-5.216,24.76-12.701,28.018-14.33c3.253-1.629,21.175-9.772,6.187-28.66
		c0,0-14.008-9.441-13.03-23.124c0,0-2.603-38.428-37.134-29.307C1053.543,706.713,1045.396,685.549,1045.396,685.549z"/>
	<linearGradient id="SVGID_12_" gradientUnits="userSpaceOnUse" x1="1041.8663" y1="850.8694" x2="1079.691" y2="622.5691">
		<stop  offset="0.4551" style="stop-color:#E1DA1D"/>
		<stop  offset="0.4832" style="stop-color:#E4DE33"/>
		<stop  offset="0.5583" style="stop-color:#EBE668"/>
		<stop  offset="0.6343" style="stop-color:#F1EE97"/>
		<stop  offset="0.7097" style="stop-color:#F6F4BC"/>
		<stop  offset="0.7844" style="stop-color:#FAF9D9"/>
		<stop  offset="0.8581" style="stop-color:#FDFCEE"/>
		<stop  offset="0.9305" style="stop-color:#FEFEFB"/>
		<stop  offset="1" style="stop-color:#FFFFFF"/>
		<stop  offset="1" style="stop-color:#FFFFFF"/>
	</linearGradient>
	<path opacity="0.6" fill="url(#SVGID_12_)" d="M1028.439,753.415c0,0-5.042-62.188,20.842-58.489
		c25.88,3.698,35.293,11.426,35.293,11.426s28.911,4.369-2.687,53.784L1028.439,753.415z"/>
	<path d="M1040.994,681.5c0,0,1.597-22.123,22.129-16.286c0,0,20.531,4.779,31.325,16.286c0,0,9.383,10.971-3.54,21.059
		c0,0-8.321,7.081-14.87,9.562c0,0-17.698,8.315-27.078-2.834C1048.961,709.286,1040.818,699.552,1040.994,681.5z"/>
	<linearGradient id="SVGID_13_" gradientUnits="userSpaceOnUse" x1="1050.6096" y1="658.2253" x2="1070.0243" y2="697.6033">
		<stop  offset="0.062" style="stop-color:#454544"/>
		<stop  offset="0.0748" style="stop-color:#6A6A69"/>
		<stop  offset="0.0928" style="stop-color:#979797"/>
		<stop  offset="0.1108" style="stop-color:#BDBDBC"/>
		<stop  offset="0.1287" style="stop-color:#DADAD9"/>
		<stop  offset="0.1464" style="stop-color:#EEEEEE"/>
		<stop  offset="0.1637" style="stop-color:#FBFBFB"/>
		<stop  offset="0.1803" style="stop-color:#FFFFFF"/>
		<stop  offset="1" style="stop-color:#000000"/>
	</linearGradient>
	<path fill="url(#SVGID_13_)" d="M1046.027,681.337c0,0,1.07-14.889,14.889-10.958c0,0,13.814,3.22,21.078,10.958
		c0,0,6.312,7.386-2.379,14.175c0,0-5.601,4.76-10.004,6.43c0,0-11.91,5.601-18.226-1.906
		C1051.385,700.036,1045.909,693.487,1046.027,681.337z"/>
	<ellipse cx="256.117" cy="411.726" rx="21.12" ry="21.115"/>
</g>
</svg>
